<svg xmlns="http://www.w3.org/2000/svg" shape-rendering="geometricPrecision" text-rendering="geometricPrecision" image-rendering="optimizeQuality" fill-rule="evenodd" clip-rule="evenodd" viewBox="0 0 512 389.477"><path d="M464.509 164.322c8.829 21.108 21.97 50.789 33.845 74.508 13.236 26.411 22.913 56.297-.822 84.05-75.943 88.8-407.115 88.791-483.063 0-23.737-27.762-14.057-57.639-.821-84.05 11.215-22.399 23.555-50.116 32.33-70.91-4.225-6.916-7.025-14.886-7.996-22.724-2.638-21.251 8.483-41.712 31.744-39.975 4.043.303 8.526 1.204 13.485 2.64 4.254-26.258 13.308-47.065 25.371-63.134C143.959-2.388 215.471-13.68 264.528 17.548c11.37-8.328 24.013-12.746 36.914-14.068 30.467-3.129 63.518 11.341 83.576 34.158 7.489 8.521 12.998 18.089 15.685 28.016 36.54-.757 72.024 23.732 73.398 62.633.442 12.45-2.799 25.055-9.592 36.035zm-208.22-38.655c9.029 0 16.341 7.319 16.341 16.341 0 9.028-7.319 16.34-16.341 16.34-9.026 0-16.34-7.312-16.34-16.34 0-9.022 7.314-16.341 16.34-16.341zm-27.986-46.111c7.075 0 12.811 5.742 12.811 12.818s-5.736 12.818-12.811 12.818c-7.083 0-12.819-5.742-12.819-12.818s5.736-12.818 12.819-12.818zm122.12 67.417c9.022 0 16.34 7.318 16.34 16.341 0 9.029-7.318 16.34-16.34 16.34-9.029 0-16.348-7.311-16.348-16.34 0-9.023 7.319-16.341 16.348-16.341zm-41.685-69.121c5.989-2.994 13.272-.563 16.266 5.426 2.997 5.991.566 25.016-5.419 28.013-5.991 2.995-13.278-11.174-16.275-17.166-2.995-5.989-.57-13.278 5.428-16.266v-.007zm-165.241 35.7c6.184-3.087 13.707-.588 16.8 5.61 3.086 6.178 5.967 13.945-.224 17.036-6.185 3.087-19.089.341-22.186-5.85-3.092-6.185-.588-13.703 5.61-16.8v.004zm43.199 54.642c4.663 0 8.452 3.789 8.452 8.452 0 4.669-3.789 8.447-8.452 8.447a8.442 8.442 0 01-8.447-8.447c0-4.663 3.778-8.452 8.447-8.452zM303.234 20.976c-11.487 1.177-22.714 5.565-32.47 14.141l-.018-.021c-3.055 2.694-7.684 2.975-11.072.434-41.042-30.822-106.686-20.691-137.039 19.734-11.855 15.788-20.392 37.193-23.371 65.247a8.78 8.78 0 01-.519 2.191c-1.71 4.546-6.786 6.842-11.332 5.132-7.724-2.916-14.039-4.681-18.993-5.049-11.705-.869-14.175 10.349-12.942 20.273.893 7.19 3.944 14.471 8.513 19.95a28.689 28.689 0 003.924 3.9c32.368 26.377 114.725 41.242 195.924 40.73 74.082-.467 146.42-13.749 177.635-42.784a47.846 47.846 0 005.459-6.003l.315-.449c6.507-8.73 9.653-19.209 9.289-29.495-1.102-31.289-33.047-48.794-61.532-45.245l-.576.078c-4.831.494-9.151-3.021-9.644-7.852-.932-9.076-5.711-18.323-12.993-26.608-16.325-18.577-43.708-30.854-68.558-28.304zM234.947 233.38c9.498 0 17.21 11.812 17.21 26.377 0 14.562-7.712 26.381-17.21 26.381-9.502 0-17.213-11.809-17.213-26.381.009-14.565 7.711-26.377 17.213-26.377zm37.736 67.783c8.331 5.529 13.18 16.707 24.783 32.317 8.47 16.621-2.527 27.102-21.373 22.615-8.553-4.355-14.567-5.891-20.598-5.691-10.453.366-13.088 7.26-25.246 6.775-9.379-.254-13.604-4.184-14.423-10.178-.878-6.367 1.578-10.391 4.57-15.658 7.33-12.924 14.814-24.134 22.801-30.007 7.79-5.731 21.367-5.563 29.486-.173zm-73.438-27.818c-7.105 2.806-9.368 13.918-5.062 24.801 4.303 10.885 13.552 17.432 20.657 14.625 7.103-2.81 9.368-13.918 5.065-24.803-4.308-10.883-13.557-17.436-20.66-14.623zm113.511-.449c7.103 2.806 9.368 13.918 5.063 24.801-4.304 10.885-13.564 17.432-20.658 14.625-7.102-2.81-9.368-13.917-5.064-24.801 4.306-10.885 13.557-17.438 20.659-14.625zm-35.888-39.893c9.502 0 17.214 11.819 17.214 26.381 0 14.563-7.712 26.377-17.214 26.377-9.498 0-17.209-11.803-17.209-26.377.009-14.562 7.711-26.381 17.209-26.381z"/></svg>