<?xml version="1.0" encoding="utf-8"?><svg version="1.1" id="Layer_1" xmlns="http://www.w3.org/2000/svg" xmlns:xlink="http://www.w3.org/1999/xlink" x="0px" y="0px" viewBox="0 0 122.88 122.88" style="enable-background:new 0 0 122.88 122.88" xml:space="preserve"><style type="text/css">.st0{fill-rule:evenodd;clip-rule:evenodd;}</style><g><path class="st0" d="M61.44,0c15.93,0,30.44,6.06,41.36,16.01c-1.79,1.46-3.48,3.05-5.08,4.72C87.75,31.2,81.57,45.66,81.56,61.6 h-0.02v0.04h0.02c0,15.96,6.18,30.42,16.17,40.89c1.52,1.6,3.15,3.12,4.85,4.53c-10.89,9.83-25.32,15.82-41.14,15.82 s-30.25-5.99-41.14-15.83c1.7-1.4,3.33-2.93,4.85-4.53c9.98-10.47,16.17-24.93,16.17-40.89l0.03,0V61.6h-0.03 c-0.01-15.94-6.18-30.4-16.16-40.87c-1.6-1.68-3.3-3.26-5.08-4.72C31,6.06,45.51,0,61.44,0L61.44,0z M110.71,24.74 c7.64,10.24,12.17,22.94,12.17,36.7c0,13.86-4.6,26.64-12.34,36.92c-1.51-1.22-2.95-2.55-4.28-3.95 c-7.99-8.38-12.94-19.97-12.94-32.78l0.02,0V61.6h-0.02c0-12.79,4.95-24.38,12.93-32.75C107.65,27.38,109.14,26,110.71,24.74 L110.71,24.74z M12.34,98.36C4.6,88.08,0,75.3,0,61.44c0-13.76,4.53-26.46,12.17-36.69c1.58,1.26,3.07,2.63,4.46,4.1 c7.98,8.38,12.93,19.96,12.93,32.75h-0.02v0.04h0.02c0,12.8-4.95,24.4-12.94,32.78C15.29,95.81,13.85,97.14,12.34,98.36 L12.34,98.36L12.34,98.36z"/></g></svg>