<svg xmlns="http://www.w3.org/2000/svg" shape-rendering="geometricPrecision" text-rendering="geometricPrecision" image-rendering="optimizeQuality" fill-rule="evenodd" clip-rule="evenodd" viewBox="0 0 493 511.92"><path fill-rule="nonzero" d="M277.16 41.75c49.87 6.77 94.55 29.89 128.47 63.79 40.67 40.67 65.83 96.87 65.83 158.93 0 62.08-25.15 118.28-65.83 158.96a227.22 227.22 0 0 1-25.34 21.83l27.24 38.33c5.68 8.18 3.65 19.42-4.54 25.11-8.19 5.68-19.44 3.65-25.12-4.54l-28.28-39.78c-30.84 15.91-65.83 24.89-102.92 24.89-37.7 0-73.23-9.28-104.43-25.69l-26.59 39.71c-5.54 8.28-16.76 10.5-25.04 4.95-8.29-5.55-10.5-16.75-4.95-25.03l26.07-38.95a225.636 225.636 0 0 1-24-20.83c-40.68-40.68-65.84-96.89-65.84-158.96 0-62.06 25.17-118.26 65.84-158.93 36.44-36.44 85.34-60.4 139.74-65.03 16.45-1.4 33.38-.97 49.69 1.24zm5.6 195.95 65.46-.03v31.57H234.68V239l63.71-63.71h-62.95v-31.57h110.69v30.24l-63.37 63.74zM177.59 355.19l44.18-.03v21.31h-76.64v-20.41l43.01-43h-42.49v-21.31h74.71v20.41l-42.77 43.03zm304.1-210.46c17.29-41.28 15.24-84.52-9.52-113.49-29.69-34.76-83.39-38.75-133.25-14.3 53.01 36.36 101.11 78.78 142.77 127.79zm-470.15 1.35C-6.1 104.02-4.01 59.97 21.21 30.45 51.47-4.97 106.18-9.03 156.99 15.88c-54 37.06-103.03 80.26-145.45 130.2zm368.56-15.02c-34.14-34.15-81.31-55.27-133.42-55.27-52.1 0-99.28 21.12-133.43 55.27-34.14 34.14-55.26 81.31-55.26 133.42 0 52.11 21.12 99.28 55.26 133.43 34.15 34.14 81.32 55.26 133.42 55.26 52.12 0 99.29-21.12 133.43-55.26 34.14-34.15 55.27-81.32 55.27-133.44 0-52.1-21.12-99.27-55.27-133.41z"/></svg>